<svg width="148" height="148" viewBox="0 0 148 148" fill="none" xmlns="http://www.w3.org/2000/svg">
<g filter="url(#filter0_d_96_50)">
<mask id="path-1-inside-1_96_50" fill="white">
<path d="M40 54C40 46.268 46.268 40 54 40H94C101.732 40 108 46.268 108 54V94C108 101.732 101.732 108 94 108H54C46.268 108 40 101.732 40 94V54Z"/>
</mask>
<path d="M40 54C40 46.268 46.268 40 54 40H94C101.732 40 108 46.268 108 54V94C108 101.732 101.732 108 94 108H54C46.268 108 40 101.732 40 94V54Z" fill="url(#paint0_linear_96_50)" shape-rendering="crispEdges"/>
<path d="M54 40V43H94V40V37H54V40ZM108 54H105V94H108H111V54H108ZM94 108V105H54V108V111H94V108ZM40 94H43V54H40H37V94H40ZM54 108V105C47.9249 105 43 100.075 43 94H40H37C37 103.389 44.6112 111 54 111V108ZM108 94H105C105 100.075 100.075 105 94 105V108V111C103.389 111 111 103.389 111 94H108ZM94 40V43C100.075 43 105 47.9249 105 54H108H111C111 44.6112 103.389 37 94 37V40ZM54 40V37C44.6112 37 37 44.6112 37 54H40H43C43 47.9249 47.9249 43 54 43V40Z" fill="white" fill-opacity="0.5" mask="url(#path-1-inside-1_96_50)"/>
<g filter="url(#filter1_d_96_50)">
<path d="M86.8332 90.5V86.8333C86.8332 84.8884 86.0605 83.0232 84.6853 81.6479C83.31 80.2726 81.4448 79.5 79.4998 79.5H68.4998C66.5549 79.5 64.6897 80.2726 63.3144 81.6479C61.9391 83.0232 61.1665 84.8884 61.1665 86.8333V90.5" stroke="white" stroke-width="3.5" stroke-linecap="round" stroke-linejoin="round"/>
<path d="M73.9998 72.1667C78.0499 72.1667 81.3332 68.8834 81.3332 64.8333C81.3332 60.7832 78.0499 57.5 73.9998 57.5C69.9497 57.5 66.6665 60.7832 66.6665 64.8333C66.6665 68.8834 69.9497 72.1667 73.9998 72.1667Z" stroke="white" stroke-width="3.5" stroke-linecap="round" stroke-linejoin="round"/>
</g>
</g>
<defs>
<filter id="filter0_d_96_50" x="0" y="0" width="148" height="148" filterUnits="userSpaceOnUse" color-interpolation-filters="sRGB">
<feFlood flood-opacity="0" result="BackgroundImageFix"/>
<feColorMatrix in="SourceAlpha" type="matrix" values="0 0 0 0 0 0 0 0 0 0 0 0 0 0 0 0 0 0 127 0" result="hardAlpha"/>
<feOffset/>
<feGaussianBlur stdDeviation="20"/>
<feComposite in2="hardAlpha" operator="out"/>
<feColorMatrix type="matrix" values="0 0 0 0 1 0 0 0 0 1 0 0 0 0 1 0 0 0 0.376 0"/>
<feBlend mode="normal" in2="BackgroundImageFix" result="effect1_dropShadow_96_50"/>
<feBlend mode="normal" in="SourceGraphic" in2="effect1_dropShadow_96_50" result="shape"/>
</filter>
<filter id="filter1_d_96_50" x="32" y="32" width="84" height="84" filterUnits="userSpaceOnUse" color-interpolation-filters="sRGB">
<feFlood flood-opacity="0" result="BackgroundImageFix"/>
<feColorMatrix in="SourceAlpha" type="matrix" values="0 0 0 0 0 0 0 0 0 0 0 0 0 0 0 0 0 0 127 0" result="hardAlpha"/>
<feOffset/>
<feGaussianBlur stdDeviation="10"/>
<feColorMatrix type="matrix" values="0 0 0 0 1 0 0 0 0 1 0 0 0 0 1 0 0 0 0.4 0"/>
<feBlend mode="normal" in2="BackgroundImageFix" result="effect1_dropShadow_96_50"/>
<feBlend mode="normal" in="SourceGraphic" in2="effect1_dropShadow_96_50" result="shape"/>
</filter>
<linearGradient id="paint0_linear_96_50" x1="40" y1="40" x2="108" y2="108" gradientUnits="userSpaceOnUse">
<stop stop-color="white" stop-opacity="0.15"/>
<stop offset="1" stop-opacity="0"/>
</linearGradient>
</defs>
</svg>
