<svg width="87" height="72" viewBox="0 0 87 72" fill="none" xmlns="http://www.w3.org/2000/svg">
<g filter="url(#filter0_d_124_45)">
<mask id="path-1-inside-1_124_45" fill="white">
<path d="M11 23C11 15.268 17.268 9 25 9H53C60.732 9 67 15.268 67 23V51C67 58.732 60.732 65 53 65H25C17.268 65 11 58.732 11 51V23Z"/>
</mask>
<path d="M11 23C11 15.268 17.268 9 25 9H53C60.732 9 67 15.268 67 23V51C67 58.732 60.732 65 53 65H25C17.268 65 11 58.732 11 51V23Z" fill="url(#paint0_linear_124_45)" shape-rendering="crispEdges"/>
<path d="M25 9V11H53V9V7H25V9ZM67 23H65V51H67H69V23H67ZM53 65V63H25V65V67H53V65ZM11 51H13V23H11H9V51H11ZM25 65V63C18.3726 63 13 57.6274 13 51H11H9C9 59.8366 16.1634 67 25 67V65ZM67 51H65C65 57.6274 59.6274 63 53 63V65V67C61.8366 67 69 59.8366 69 51H67ZM53 9V11C59.6274 11 65 16.3726 65 23H67H69C69 14.1634 61.8366 7 53 7V9ZM25 9V7C16.1634 7 9 14.1634 9 23H11H13C13 16.3726 18.3726 11 25 11V9Z" fill="white" mask="url(#path-1-inside-1_124_45)"/>
<path d="M29.6667 39.3334C29.446 39.3341 29.2295 39.2722 29.0425 39.1548C28.8555 39.0375 28.7057 38.8694 28.6104 38.6703C28.5151 38.4711 28.4782 38.249 28.5042 38.0298C28.5301 37.8105 28.6176 37.6031 28.7567 37.4317L40.3067 25.5317C40.3934 25.4317 40.5114 25.3641 40.6416 25.34C40.7717 25.316 40.9061 25.3369 41.0228 25.3993C41.1394 25.4617 41.2314 25.5619 41.2836 25.6835C41.3358 25.8051 41.3452 25.9408 41.3101 26.0684L39.0701 33.0917C39.004 33.2685 38.9818 33.4586 39.0054 33.6459C39.029 33.8331 39.0977 34.0118 39.2055 34.1667C39.3133 34.3216 39.4571 34.448 39.6246 34.535C39.792 34.6221 39.978 34.6673 40.1667 34.6667H48.3334C48.5542 34.6659 48.7706 34.7278 48.9576 34.8452C49.1446 34.9626 49.2945 35.1306 49.3898 35.3298C49.4851 35.5289 49.5219 35.751 49.496 35.9703C49.4701 36.1895 49.3825 36.3969 49.2434 36.5684L37.6934 48.4684C37.6068 48.5684 37.4887 48.6359 37.3586 48.66C37.2285 48.6841 37.0941 48.6632 36.9774 48.6008C36.8607 48.5384 36.7687 48.4381 36.7165 48.3166C36.6643 48.195 36.655 48.0593 36.6901 47.9317L38.9301 40.9084C38.9961 40.7316 39.0183 40.5414 38.9947 40.3542C38.9711 40.167 38.9025 39.9882 38.7946 39.8334C38.6868 39.6785 38.543 39.5521 38.3756 39.465C38.2082 39.3779 38.0221 39.3327 37.8334 39.3334H29.6667Z" stroke="white" stroke-width="1.75" stroke-linecap="round" stroke-linejoin="round"/>
</g>
<defs>
<filter id="filter0_d_124_45" x="-9" y="-11" width="96" height="96" filterUnits="userSpaceOnUse" color-interpolation-filters="sRGB">
<feFlood flood-opacity="0" result="BackgroundImageFix"/>
<feColorMatrix in="SourceAlpha" type="matrix" values="0 0 0 0 0 0 0 0 0 0 0 0 0 0 0 0 0 0 127 0" result="hardAlpha"/>
<feOffset/>
<feGaussianBlur stdDeviation="10"/>
<feComposite in2="hardAlpha" operator="out"/>
<feColorMatrix type="matrix" values="0 0 0 0 1 0 0 0 0 0.741176 0 0 0 0 0.0784314 0 0 0 0.19 0"/>
<feBlend mode="normal" in2="BackgroundImageFix" result="effect1_dropShadow_124_45"/>
<feBlend mode="normal" in="SourceGraphic" in2="effect1_dropShadow_124_45" result="shape"/>
</filter>
<linearGradient id="paint0_linear_124_45" x1="11" y1="9" x2="67" y2="65" gradientUnits="userSpaceOnUse">
<stop stop-color="#FFBD14" stop-opacity="0.125"/>
<stop offset="1" stop-opacity="0"/>
</linearGradient>
</defs>
</svg>
