<svg width="96" height="96" viewBox="0 0 96 96" fill="none" xmlns="http://www.w3.org/2000/svg">
<g filter="url(#filter0_d_124_6)">
<mask id="path-1-inside-1_124_6" fill="white">
<path d="M20 34C20 26.268 26.268 20 34 20H62C69.732 20 76 26.268 76 34V62C76 69.732 69.732 76 62 76H34C26.268 76 20 69.732 20 62V34Z"/>
</mask>
<path d="M20 34C20 26.268 26.268 20 34 20H62C69.732 20 76 26.268 76 34V62C76 69.732 69.732 76 62 76H34C26.268 76 20 69.732 20 62V34Z" fill="url(#paint0_linear_124_6)" shape-rendering="crispEdges"/>
<path d="M34 20V22H62V20V18H34V20ZM76 34H74V62H76H78V34H76ZM62 76V74H34V76V78H62V76ZM20 62H22V34H20H18V62H20ZM34 76V74C27.3726 74 22 68.6274 22 62H20H18C18 70.8366 25.1634 78 34 78V76ZM76 62H74C74 68.6274 68.6274 74 62 74V76V78C70.8366 78 78 70.8366 78 62H76ZM62 20V22C68.6274 22 74 27.3726 74 34H76H78C78 25.1634 70.8366 18 62 18V20ZM34 20V18C25.1634 18 18 25.1634 18 34H20H22C22 27.3726 27.3726 22 34 22V20Z" fill="white" mask="url(#path-1-inside-1_124_6)"/>
<path d="M48.0001 39.8333C48.0015 39.3667 47.9096 38.9045 47.7297 38.4739C47.5498 38.0434 47.2857 37.6531 46.9528 37.3261C46.6199 36.9991 46.225 36.742 45.7912 36.5699C45.3575 36.3977 44.8937 36.3141 44.4272 36.3238C43.9607 36.3335 43.5008 36.4364 43.0746 36.6265C42.6484 36.8165 42.2646 37.0899 41.9456 37.4305C41.6266 37.7711 41.379 38.172 41.2172 38.6097C41.0554 39.0474 40.9828 39.513 41.0036 39.9792C40.3179 40.1555 39.6812 40.4856 39.1419 40.9444C38.6026 41.4032 38.1747 41.9787 37.8908 42.6273C37.6068 43.276 37.4742 43.9807 37.5029 44.6882C37.5316 45.3957 37.721 46.0874 38.0566 46.7108C37.4665 47.1903 37.0025 47.8066 36.7049 48.5063C36.4073 49.2059 36.2851 49.9677 36.3491 50.7253C36.413 51.483 36.6611 52.2135 37.0717 52.8534C37.4824 53.4933 38.0432 54.0231 38.7053 54.3968C38.6235 55.0294 38.6723 55.6721 38.8487 56.2851C39.025 56.8981 39.3251 57.4685 39.7305 57.961C40.1359 58.4534 40.638 58.8576 41.2057 59.1484C41.7734 59.4392 42.3947 59.6106 43.0313 59.6519C43.6678 59.6932 44.306 59.6036 44.9066 59.3886C45.5071 59.1735 46.0572 58.8377 46.5228 58.4017C46.9885 57.9658 47.3598 57.439 47.6139 56.8539C47.868 56.2688 47.9994 55.6379 48.0001 55V39.8333Z" stroke="white" stroke-width="1.75" stroke-linecap="round" stroke-linejoin="round"/>
<path d="M48 39.8333C47.9986 39.3667 48.0906 38.9045 48.2705 38.4739C48.4503 38.0434 48.7145 37.6531 49.0474 37.3261C49.3803 36.9991 49.7752 36.742 50.2089 36.5699C50.6426 36.3977 51.1064 36.3141 51.5729 36.3238C52.0395 36.3335 52.4993 36.4364 52.9255 36.6265C53.3517 36.8165 53.7356 37.0899 54.0545 37.4305C54.3735 37.7711 54.6212 38.172 54.783 38.6097C54.9447 39.0474 55.0173 39.513 54.9965 39.9792C55.6823 40.1555 56.3189 40.4856 56.8582 40.9444C57.3976 41.4032 57.8254 41.9787 58.1094 42.6273C58.3933 43.276 58.526 43.9807 58.4972 44.6882C58.4685 45.3957 58.2791 46.0874 57.9435 46.7108C58.5336 47.1903 58.9977 47.8066 59.2953 48.5063C59.5929 49.2059 59.715 49.9677 59.6511 50.7253C59.5872 51.483 59.3391 52.2135 58.9284 52.8534C58.5178 53.4933 57.957 54.0231 57.2948 54.3968C57.3766 55.0294 57.3278 55.6721 57.1515 56.2851C56.9751 56.8981 56.675 57.4685 56.2696 57.961C55.8642 58.4534 55.3621 58.8576 54.7944 59.1484C54.2267 59.4392 53.6054 59.6106 52.9689 59.6519C52.3323 59.6932 51.6941 59.6036 51.0936 59.3886C50.493 59.1735 49.9429 58.8377 49.4773 58.4017C49.0116 57.9658 48.6403 57.439 48.3862 56.8539C48.1321 56.2688 48.0007 55.6379 48 55V39.8333Z" stroke="white" stroke-width="1.75" stroke-linecap="round" stroke-linejoin="round"/>
<path d="M51.5 49.1667C50.5205 48.8221 49.6652 48.1948 49.0422 47.3642C48.4192 46.5335 48.0565 45.5368 48 44.5C47.9435 45.5368 47.5808 46.5335 46.9578 47.3642C46.3348 48.1948 45.4795 48.8221 44.5 49.1667" stroke="white" stroke-width="1.75" stroke-linecap="round" stroke-linejoin="round"/>
<path d="M54.5322 41.5833C54.8146 41.094 54.9743 40.5436 54.9977 39.9792" stroke="white" stroke-width="1.75" stroke-linecap="round" stroke-linejoin="round"/>
<path d="M41.0034 39.9792C41.0265 40.5435 41.1858 41.0939 41.4678 41.5833" stroke="white" stroke-width="1.75" stroke-linecap="round" stroke-linejoin="round"/>
<path d="M38.0566 46.712C38.2701 46.5382 38.4985 46.3836 38.7391 46.25" stroke="white" stroke-width="1.75" stroke-linecap="round" stroke-linejoin="round"/>
<path d="M57.2612 46.25C57.5019 46.3836 57.7303 46.5382 57.9437 46.712" stroke="white" stroke-width="1.75" stroke-linecap="round" stroke-linejoin="round"/>
<path d="M40.9999 55C40.1959 55.0004 39.4054 54.793 38.7051 54.398" stroke="white" stroke-width="1.75" stroke-linecap="round" stroke-linejoin="round"/>
<path d="M57.2948 54.398C56.5945 54.793 55.804 55.0004 55 55" stroke="white" stroke-width="1.75" stroke-linecap="round" stroke-linejoin="round"/>
</g>
<defs>
<filter id="filter0_d_124_6" x="0" y="0" width="96" height="96" filterUnits="userSpaceOnUse" color-interpolation-filters="sRGB">
<feFlood flood-opacity="0" result="BackgroundImageFix"/>
<feColorMatrix in="SourceAlpha" type="matrix" values="0 0 0 0 0 0 0 0 0 0 0 0 0 0 0 0 0 0 127 0" result="hardAlpha"/>
<feOffset/>
<feGaussianBlur stdDeviation="10"/>
<feComposite in2="hardAlpha" operator="out"/>
<feColorMatrix type="matrix" values="0 0 0 0 0.223529 0 0 0 0 0.584314 0 0 0 0 1 0 0 0 0.19 0"/>
<feBlend mode="normal" in2="BackgroundImageFix" result="effect1_dropShadow_124_6"/>
<feBlend mode="normal" in="SourceGraphic" in2="effect1_dropShadow_124_6" result="shape"/>
</filter>
<linearGradient id="paint0_linear_124_6" x1="20" y1="20" x2="76" y2="76" gradientUnits="userSpaceOnUse">
<stop stop-color="#3995FF" stop-opacity="0.125"/>
<stop offset="1" stop-opacity="0"/>
</linearGradient>
</defs>
</svg>
