<svg width="85" height="72" viewBox="0 0 85 72" fill="none" xmlns="http://www.w3.org/2000/svg">
<g filter="url(#filter0_d_124_32)">
<mask id="path-1-inside-1_124_32" fill="white">
<path d="M9 20C9 12.268 15.268 6 23 6H51C58.732 6 65 12.268 65 20V53C65 60.732 58.732 67 51 67H23C15.268 67 9 60.732 9 53V20Z"/>
</mask>
<path d="M9 20C9 12.268 15.268 6 23 6H51C58.732 6 65 12.268 65 20V53C65 60.732 58.732 67 51 67H23C15.268 67 9 60.732 9 53V20Z" fill="url(#paint0_linear_124_32)" shape-rendering="crispEdges"/>
<path d="M23 6V8H51V6V4H23V6ZM65 20H63V53H65H67V20H65ZM51 67V65H23V67V69H51V67ZM9 53H11V20H9H7V53H9ZM23 67V65C16.3726 65 11 59.6274 11 53H9H7C7 61.8366 14.1634 69 23 69V67ZM65 53H63C63 59.6274 57.6274 65 51 65V67V69C59.8366 69 67 61.8366 67 53H65ZM51 6V8C57.6274 8 63 13.3726 63 20H65H67C67 11.1634 59.8366 4 51 4V6ZM23 6V4C14.1634 4 7 11.1634 7 20H9H11C11 13.3726 16.3726 8 23 8V6Z" fill="white" mask="url(#path-1-inside-1_124_32)"/>
<path d="M47.5 37.875C47.5 44.75 42.6875 48.1875 36.9675 50.1813C36.668 50.2828 36.3426 50.2779 36.0462 50.1675C30.3125 48.1875 25.5 44.75 25.5 37.875V28.25C25.5 27.8853 25.6449 27.5356 25.9027 27.2777C26.1606 27.0199 26.5103 26.875 26.875 26.875C29.625 26.875 33.0625 25.225 35.455 23.135C35.7463 22.8861 36.1169 22.7494 36.5 22.7494C36.8831 22.7494 37.2537 22.8861 37.545 23.135C39.9512 25.2388 43.375 26.875 46.125 26.875C46.4897 26.875 46.8394 27.0199 47.0973 27.2777C47.3551 27.5356 47.5 27.8853 47.5 28.25V37.875Z" stroke="white" stroke-width="1.75" stroke-linecap="round" stroke-linejoin="round"/>
</g>
<defs>
<filter id="filter0_d_124_32" x="-11" y="-14" width="96" height="101" filterUnits="userSpaceOnUse" color-interpolation-filters="sRGB">
<feFlood flood-opacity="0" result="BackgroundImageFix"/>
<feColorMatrix in="SourceAlpha" type="matrix" values="0 0 0 0 0 0 0 0 0 0 0 0 0 0 0 0 0 0 127 0" result="hardAlpha"/>
<feOffset/>
<feGaussianBlur stdDeviation="10"/>
<feComposite in2="hardAlpha" operator="out"/>
<feColorMatrix type="matrix" values="0 0 0 0 0.054902 0 0 0 0 0.666667 0 0 0 0 0.572549 0 0 0 0.19 0"/>
<feBlend mode="normal" in2="BackgroundImageFix" result="effect1_dropShadow_124_32"/>
<feBlend mode="normal" in="SourceGraphic" in2="effect1_dropShadow_124_32" result="shape"/>
</filter>
<linearGradient id="paint0_linear_124_32" x1="9" y1="6" x2="69.7776" y2="61.7958" gradientUnits="userSpaceOnUse">
<stop stop-color="#0EAA92" stop-opacity="0.125"/>
<stop offset="1" stop-opacity="0"/>
</linearGradient>
</defs>
</svg>
