<svg xmlns="http://www.w3.org/2000/svg" viewBox="0 0 512 512" role="img" aria-label="Enchanted Tools icon">
  <defs>
    <linearGradient id="g" x1="96" y1="64" x2="416" y2="448" gradientUnits="userSpaceOnUse">
      <stop offset="0" stop-color="#34d399"/>
      <stop offset="1" stop-color="#38bdf8"/>
    </linearGradient>
    <filter id="shadow" x="-20%" y="-20%" width="140%" height="140%">
      <feDropShadow dx="0" dy="10" stdDeviation="12" flood-color="#000" flood-opacity="0.35"/>
    </filter>
  </defs>
  <rect x="56" y="56" width="400" height="400" rx="96" fill="#020617"/>
  <rect x="56" y="56" width="400" height="400" rx="96" fill="url(#g)" opacity="0.18"/>
  <g filter="url(#shadow)">
    <path d="M168 176h176a24 24 0 0 1 24 24v24a24 24 0 0 1-24 24H168a24 24 0 0 1-24-24v-24a24 24 0 0 1 24-24Z" fill="url(#g)"/>
    <path d="M168 264h112a24 24 0 0 1 24 24v24a24 24 0 0 1-24 24H168a24 24 0 0 1-24-24v-24a24 24 0 0 1 24-24Z" fill="url(#g)" opacity="0.95"/>
    <path d="M328 264h16a24 24 0 0 1 24 24v24a24 24 0 0 1-24 24h-16a24 24 0 0 1-24-24v-24a24 24 0 0 1 24-24Z" fill="#e2e8f0" opacity="0.9"/>
    <path d="M200 352l56-56 56 56" fill="none" stroke="#e2e8f0" stroke-width="20" stroke-linecap="round" stroke-linejoin="round" opacity="0.9"/>
  </g>
</svg>
