<svg width="144" height="144" viewBox="0 0 144 144" fill="none" xmlns="http://www.w3.org/2000/svg">
<g filter="url(#filter0_d_87_610)">
<mask id="path-1-inside-1_87_610" fill="white">
<path d="M40 56C40 47.1634 47.1634 40 56 40H88C96.8366 40 104 47.1634 104 56V88C104 96.8366 96.8366 104 88 104H56C47.1634 104 40 96.8366 40 88V56Z"/>
</mask>
<path d="M40 56C40 47.1634 47.1634 40 56 40H88C96.8366 40 104 47.1634 104 56V88C104 96.8366 96.8366 104 88 104H56C47.1634 104 40 96.8366 40 88V56Z" fill="url(#paint0_linear_87_610)" shape-rendering="crispEdges"/>
<path d="M56 40V43H88V40V37H56V40ZM104 56H101V88H104H107V56H104ZM88 104V101H56V104V107H88V104ZM40 88H43V56H40H37V88H40ZM56 104V101C48.8203 101 43 95.1797 43 88H40H37C37 98.4934 45.5066 107 56 107V104ZM104 88H101C101 95.1797 95.1797 101 88 101V104V107C98.4934 107 107 98.4934 107 88H104ZM88 40V43C95.1797 43 101 48.8203 101 56H104H107C107 45.5066 98.4934 37 88 37V40ZM56 40V37C45.5066 37 37 45.5066 37 56H40H43C43 48.8203 48.8203 43 56 43V40Z" fill="#FFBD14" fill-opacity="0.6" mask="url(#path-1-inside-1_87_610)"/>
<path d="M77.3332 60C76.6259 60 75.9477 60.281 75.4476 60.781C74.9475 61.2811 74.6665 61.9594 74.6665 62.6667V70.6667C74.6665 71.3739 74.9475 72.0522 75.4476 72.5523C75.9477 73.0524 76.6259 73.3333 77.3332 73.3333C77.6868 73.3333 78.0259 73.4738 78.276 73.7239C78.526 73.9739 78.6665 74.313 78.6665 74.6667V76C78.6665 76.7072 78.3856 77.3855 77.8855 77.8856C77.3854 78.3857 76.7071 78.6667 75.9998 78.6667C75.6462 78.6667 75.3071 78.8071 75.057 79.0572C74.807 79.3072 74.6665 79.6464 74.6665 80V82.6667C74.6665 83.0203 74.807 83.3594 75.057 83.6095C75.3071 83.8595 75.6462 84 75.9998 84C78.1216 84 80.1564 83.1571 81.6567 81.6569C83.157 80.1566 83.9998 78.1217 83.9998 76V62.6667C83.9998 61.9594 83.7189 61.2811 83.2188 60.781C82.7187 60.281 82.0404 60 81.3332 60H77.3332Z" stroke="#FFBD14" stroke-width="2.66667" stroke-linecap="round" stroke-linejoin="round"/>
<path d="M62.6667 60C61.9594 60 61.2811 60.281 60.781 60.781C60.281 61.2811 60 61.9594 60 62.6667V70.6667C60 71.3739 60.281 72.0522 60.781 72.5523C61.2811 73.0524 61.9594 73.3333 62.6667 73.3333C63.0203 73.3333 63.3594 73.4738 63.6095 73.7239C63.8595 73.9739 64 74.313 64 74.6667V76C64 76.7072 63.719 77.3855 63.219 77.8856C62.7189 78.3857 62.0406 78.6667 61.3333 78.6667C60.9797 78.6667 60.6406 78.8071 60.3905 79.0572C60.1405 79.3072 60 79.6464 60 80V82.6667C60 83.0203 60.1405 83.3594 60.3905 83.6095C60.6406 83.8595 60.9797 84 61.3333 84C63.4551 84 65.4899 83.1571 66.9902 81.6569C68.4905 80.1566 69.3333 78.1217 69.3333 76V62.6667C69.3333 61.9594 69.0524 61.2811 68.5523 60.781C68.0522 60.281 67.3739 60 66.6667 60H62.6667Z" stroke="#FFBD14" stroke-width="2.66667" stroke-linecap="round" stroke-linejoin="round"/>
</g>
<defs>
<filter id="filter0_d_87_610" x="0" y="0" width="144" height="144" filterUnits="userSpaceOnUse" color-interpolation-filters="sRGB">
<feFlood flood-opacity="0" result="BackgroundImageFix"/>
<feColorMatrix in="SourceAlpha" type="matrix" values="0 0 0 0 0 0 0 0 0 0 0 0 0 0 0 0 0 0 127 0" result="hardAlpha"/>
<feOffset/>
<feGaussianBlur stdDeviation="20"/>
<feComposite in2="hardAlpha" operator="out"/>
<feColorMatrix type="matrix" values="0 0 0 0 1 0 0 0 0 0.741176 0 0 0 0 0.0784314 0 0 0 0.5 0"/>
<feBlend mode="normal" in2="BackgroundImageFix" result="effect1_dropShadow_87_610"/>
<feBlend mode="normal" in="SourceGraphic" in2="effect1_dropShadow_87_610" result="shape"/>
</filter>
<linearGradient id="paint0_linear_87_610" x1="40" y1="40" x2="104" y2="104" gradientUnits="userSpaceOnUse">
<stop stop-color="#FFBD14" stop-opacity="0.2"/>
<stop offset="1" stop-opacity="0"/>
</linearGradient>
</defs>
</svg>
